<?xml version="1.0" encoding="UTF-8" standalone="no"?>
<svg
   xmlns:dc="http://purl.org/dc/elements/1.1/"
   xmlns:cc="http://creativecommons.org/ns#"
   xmlns:rdf="http://www.w3.org/1999/02/22-rdf-syntax-ns#"
   xmlns:svg="http://www.w3.org/2000/svg"
   xmlns="http://www.w3.org/2000/svg"
   xmlns:sodipodi="http://sodipodi.sourceforge.net/DTD/sodipodi-0.dtd"
   xmlns:inkscape="http://www.inkscape.org/namespaces/inkscape"
   version="1.1"
   id="svg4163"
   viewBox="0 0 223.056 274.92567"
   height="77.590134mm"
   width="62.951359mm"
   inkscape:version="0.91 r13725"
   sodipodi:docname="logo_white.svg">
  <sodipodi:namedview
     pagecolor="#ffffff"
     bordercolor="#666666"
     borderopacity="1"
     objecttolerance="10"
     gridtolerance="10"
     guidetolerance="10"
     inkscape:pageopacity="0"
     inkscape:pageshadow="2"
     inkscape:window-width="749"
     inkscape:window-height="480"
     id="namedview13"
     showgrid="false"
     inkscape:zoom="0.85841384"
     inkscape:cx="111.528"
     inkscape:cy="137.46284"
     inkscape:window-x="722"
     inkscape:window-y="614"
     inkscape:window-maximized="0"
     inkscape:current-layer="layer1" />
  <defs
     id="defs4165" />
  <metadata
     id="metadata4168">
    <rdf:RDF>
      <cc:Work
         rdf:about="">
        <dc:format>image/svg+xml</dc:format>
        <dc:type
           rdf:resource="http://purl.org/dc/dcmitype/StillImage" />
        <dc:title />
      </cc:Work>
    </rdf:RDF>
  </metadata>
  <g
     transform="translate(-39.90057,-263.47079)"
     id="layer1">
    <g
       style="font-style:normal;font-weight:normal;font-size:33.82768631px;line-height:125%;font-family:sans-serif;letter-spacing:0px;word-spacing:0px;fill:#ffffff;fill-opacity:1;stroke:none;stroke-width:1px;stroke-linecap:butt;stroke-linejoin:miter;stroke-opacity:1"
       id="text4251">
      <path
         d="m 59.578522,476.3937 4.905015,0 q 2.706215,0 4.194633,0.74421 1.522246,0.74421 2.570904,2.13115 1.048658,1.38693 1.556074,3.34894 0.507415,1.962 0.507415,4.43143 0,2.43559 -0.608898,4.36377 -0.608899,1.92818 -1.691385,3.31511 -1.048658,1.35311 -2.740042,2.06349 -1.691385,0.71038 -4.194633,0.71038 l -4.499083,0 0,-21.10848 z m 2.232628,1.99584 0,17.25212 2.164972,0 q 3.619562,0 5.277119,-2.16497 1.691384,-2.1988 1.691384,-6.29195 -0.03383,-4.12698 -1.556074,-6.46109 -1.488418,-2.33411 -5.040325,-2.33411 l -2.537076,0 z"
         style="font-style:normal;font-variant:normal;font-weight:normal;font-stretch:normal;font-family:inconsolata;-inkscape-font-specification:inconsolata;fill:#ffffff;fill-opacity:1;stroke:none;stroke-opacity:1"
         id="path4142" />
      <path
         d="m 76.796815,482.0091 2.435593,0 0,8.62606 q 0,1.48842 0.270622,2.50325 0.270621,0.981 0.744209,1.5899 0.507415,0.6089 1.116313,0.87952 0.642726,0.27062 1.386935,0.27062 0.811865,-0.0677 1.556074,-0.40593 0.744209,-0.33828 1.31928,-0.94718 0.608898,-0.64272 0.947175,-1.62372 0.338277,-0.98101 0.338277,-2.36794 l 0,-8.52458 2.469421,0 0,14.07232 q 0,0.77803 0.169138,1.38693 l -2.570904,0 q -0.03383,-0.23679 -0.06766,-0.50741 -0.03383,-0.30445 0,-0.67656 l 0.03383,-1.18396 q -0.74421,1.28545 -2.029662,2.02966 -1.251624,0.71038 -2.77387,0.71038 -1.183969,0 -2.131144,-0.40593 -0.947175,-0.43976 -1.725212,-1.31928 -0.744209,-0.87952 -1.150142,-2.23263 -0.372104,-1.35311 -0.372104,-3.24746 l 0.03383,-8.62606 z"
         style="font-style:normal;font-variant:normal;font-weight:normal;font-stretch:normal;font-family:inconsolata;-inkscape-font-specification:inconsolata;fill:#ffffff;fill-opacity:1;stroke:none;stroke-opacity:1"
         id="path4144" />
      <path
         d="m 94.928454,482.0091 2.537077,0 -0.06766,2.97684 q 0.710381,-1.62373 2.232627,-2.46942 1.556077,-0.87952 3.315117,-0.87952 2.50324,0 4.12697,1.69138 l -1.11631,2.33411 q -0.3721,-0.50741 -0.67655,-0.84569 -0.30445,-0.33828 -0.67656,-0.57507 -0.33827,-0.2368 -0.77803,-0.37211 -0.40594,-0.13531 -1.01483,-0.13531 -1.11632,0 -2.09732,0.54125 -0.981004,0.50741 -1.725213,1.38693 -0.710382,0.84569 -1.150141,1.96201 -0.43976,1.11631 -0.43976,2.33411 l 0,7.54357 -2.469422,0 0,-15.49308 z"
         style="font-style:normal;font-variant:normal;font-weight:normal;font-stretch:normal;font-family:inconsolata;-inkscape-font-specification:inconsolata;fill:#ffffff;fill-opacity:1;stroke:none;stroke-opacity:1"
         id="path4146" />
      <path
         d="m 110.8613,497.46835 0,-22.49541 2.80769,0 q 0,0.0338 0,0.0338 0.0338,0 0.0338,0.0338 0,0.10148 -0.16914,0.30445 -0.13531,0.16913 -0.20296,0.43976 l 0,8.96433 q 0.91335,-1.42076 2.26645,-2.26645 1.38694,-0.84569 2.8077,-0.84569 1.04866,0 1.89435,0.3721 0.87952,0.33828 1.52225,1.11631 0.64272,0.77804 0.981,1.99584 0.33828,1.21779 0.33828,2.97683 l 0,9.37027 -2.40177,0 0,-9.30261 q 0,-2.43559 -0.84569,-3.4166 -0.81187,-0.981 -1.99583,-0.981 -0.77804,0 -1.55608,0.33828 -0.77803,0.33827 -1.52224,0.94717 -0.71039,0.6089 -1.11632,1.48842 -0.3721,0.87952 -0.3721,2.02966 l 0,8.89668 -2.46942,0 z"
         style="font-style:normal;font-variant:normal;font-weight:normal;font-stretch:normal;font-family:inconsolata;-inkscape-font-specification:inconsolata;fill:#ffffff;fill-opacity:1;stroke:none;stroke-opacity:1"
         id="path4148" />
      <path
         d="m 128.48552,483.8358 q 2.06349,-2.16498 5.51391,-2.16498 2.84153,0 4.46526,1.45459 1.65755,1.42077 1.65755,4.76971 l 0,9.57323 -2.30028,0 0,-1.69138 q -2.46942,2.06349 -5.54774,2.06349 -1.2178,0 -2.1988,-0.37211 -0.94717,-0.3721 -1.62373,-0.981 -0.67655,-0.6089 -1.04866,-1.38693 -0.33827,-0.77804 -0.33827,-1.55608 0,-2.33411 1.99583,-3.68722 2.02966,-1.3531 5.81836,-1.48841 l 2.90918,0 0,-0.57508 q 0,-2.30028 -0.981,-3.21363 -0.94718,-0.91334 -2.97684,-0.91334 -2.50325,0 -4.1608,1.72521 l -1.18397,-1.55607 z m 9.4041,6.39343 -0.57507,0 q -0.47359,0 -0.91335,0 -0.40593,-0.0338 -0.81187,-0.0338 -1.86052,0 -3.04449,0.27062 -1.18397,0.2368 -1.86052,0.67656 -0.67655,0.43976 -0.94718,1.01483 -0.23679,0.54124 -0.23679,1.18397 0,1.08248 0.94718,1.86052 0.94717,0.77804 2.33411,0.77804 1.01483,0 1.82669,-0.30445 0.81187,-0.33828 1.42076,-0.77804 0.6089,-0.47359 0.98101,-0.94718 0.3721,-0.50741 0.54124,-0.87952 0.33828,-0.67655 0.33828,-1.82669 l 0,-1.01483 z"
         style="font-style:normal;font-variant:normal;font-weight:normal;font-stretch:normal;font-family:inconsolata;-inkscape-font-specification:inconsolata;fill:#ffffff;fill-opacity:1;stroke:none;stroke-opacity:1"
         id="path4150" />
      <path
         d="m 143.60649,497.46835 0,-15.45925 2.23263,0 0,1.52225 q 0.54124,-0.8457 1.38694,-1.35311 0.84569,-0.54124 1.79286,-0.54124 0.98101,0 1.72521,0.64272 0.77804,0.64273 0.98101,1.62373 0.43976,-1.01483 1.38693,-1.62373 0.94718,-0.64272 2.06349,-0.64272 1.5899,0 2.33411,1.15014 0.74421,1.11631 0.67656,2.8077 l 0,11.87351 -2.23263,0 0,-10.96017 q 0,-1.04866 -0.10148,-1.65755 -0.10149,-0.6089 -0.33828,-0.91335 -0.2368,-0.33828 -0.47359,-0.40593 -0.23679,-0.10149 -0.6089,-0.10149 -0.43976,0 -0.87952,0.37211 -0.43976,0.33827 -0.77803,0.87952 -0.33828,0.54124 -0.54125,1.25162 -0.20296,0.67656 -0.20296,1.31928 l 0,10.21596 -2.26646,0 0,-10.7572 q 0,-1.92818 -0.3721,-2.57091 -0.33828,-0.64272 -1.2178,-0.64272 -0.81186,0 -1.5899,0.981 -0.74421,0.94718 -0.74421,2.67239 l 0,10.31744 -2.23263,0 z"
         style="font-style:normal;font-variant:normal;font-weight:normal;font-stretch:normal;font-family:inconsolata;-inkscape-font-specification:inconsolata;fill:#ffffff;fill-opacity:1;stroke:none;stroke-opacity:1"
         id="path4152" />
      <path
         d="m 189.61215,481.16341 q 0,-0.40593 -0.10148,-0.6089 -0.67656,-1.11631 -1.75904,-1.75904 -1.08249,-0.67655 -2.30029,-0.67655 -1.15014,0 -2.16497,0.6089 -1.01483,0.57507 -1.79286,1.72521 -0.77804,1.11631 -1.2178,2.74004 -0.43976,1.62373 -0.43976,3.68722 0,1.99583 0.43976,3.65339 0.43976,1.62373 1.2178,2.8077 0.81186,1.15014 1.86052,1.79286 1.08248,0.64273 2.30028,0.64273 1.25163,0 2.40177,-0.67655 1.18397,-0.71039 1.89435,-1.89436 l 1.75904,1.15015 q -0.50742,0.84569 -1.2178,1.48841 -0.71038,0.64273 -1.52225,1.08249 -0.77803,0.43976 -1.5899,0.64273 -0.77803,0.23679 -1.5899,0.23679 -1.82669,0 -3.24746,-0.6089 -1.38693,-0.64272 -2.5709,-1.962 -1.15014,-1.31928 -1.79287,-3.34894 -0.64272,-2.02967 -0.64272,-4.83736 0,-3.11215 0.74421,-5.17564 0.7442,-2.09732 1.962,-3.34894 1.2178,-1.25163 2.57091,-1.75904 1.38693,-0.54124 2.67238,-0.54124 1.04866,0 2.02966,0.30445 1.01483,0.30444 1.86053,0.84569 0.87952,0.54124 1.55607,1.31928 0.67655,0.74421 1.08249,1.69138 l -2.26646,1.11632 q -0.13531,-0.10149 -0.13531,-0.33828 z"
         style="font-style:normal;font-variant:normal;font-weight:normal;font-stretch:normal;font-family:inconsolata;-inkscape-font-specification:inconsolata;fill:#ffffff;fill-opacity:1;stroke:none;stroke-opacity:1"
         id="path4154" />
      <path
         d="m 196.64831,482.0091 6.19046,0 0,13.49725 3.61957,0 0,1.962 -10.013,0 0,-1.962 3.95784,0 0,-11.53524 -3.75487,0 0,-1.96201 z m 3.7887,-6.22429 q 0.50741,-0.50742 1.21779,-0.50742 0.71039,0 1.2178,0.54124 0.54124,0.50742 0.54124,1.2178 0,0.71038 -0.54124,1.2178 -0.50741,0.50741 -1.2178,0.50741 -0.71038,0 -1.21779,-0.50741 -0.50742,-0.50742 -0.50742,-1.2178 0,-0.74421 0.50742,-1.25162 z"
         style="font-style:normal;font-variant:normal;font-weight:normal;font-stretch:normal;font-family:inconsolata;-inkscape-font-specification:inconsolata;fill:#ffffff;fill-opacity:1;stroke:none;stroke-opacity:1"
         id="path4156" />
      <path
         d="m 216.33603,477.88212 2.67238,-0.43976 q 0,0.30445 -0.10148,0.54125 -0.0676,0.23679 -0.10148,0.3721 l -0.40593,3.65339 5.07415,0 0,1.99583 -5.07415,0 q -0.30445,3.01067 -0.30445,5.64923 0,1.62373 0.0677,2.74004 0.0677,1.11631 0.33828,1.75904 0.30445,0.64273 0.84569,1.01483 0.54124,0.33828 1.45459,0.33828 1.55607,0 3.45042,-1.38694 l 0.74421,1.92818 q -2.33411,1.72521 -4.80353,1.72521 -2.43559,0 -3.5519,-1.45459 -1.11632,-1.48842 -1.01484,-4.80353 0,-1.2178 0.0677,-3.11215 0.0677,-1.89435 0.27062,-4.3976 l -3.61956,0 0,-1.99583 3.72104,0 0.27063,-4.12698 z"
         style="font-style:normal;font-variant:normal;font-weight:normal;font-stretch:normal;font-family:inconsolata;-inkscape-font-specification:inconsolata;fill:#ffffff;fill-opacity:1;stroke:none;stroke-opacity:1"
         id="path4158" />
      <path
         d="m 228.88609,483.09159 -0.43976,-1.08249 3.01066,0 q 0,0.27062 -0.0676,0.47359 -0.0677,0.16914 -0.0677,0.33828 0,0.13531 0.0677,0.20296 l 4.53291,11.3661 2.94301,-8.28778 q 0.43976,-1.18397 0.71038,-2.1988 0.27062,-1.04866 0.43976,-1.89435 l 2.53707,0 q -0.30445,0.87952 -0.67655,1.99583 -0.33828,1.11632 -0.84569,2.46943 l -4.19464,11.06165 -0.64272,1.69138 q -0.81187,2.26646 -2.09732,3.17981 -1.25162,0.94717 -2.90918,0.94717 -2.1988,0 -3.55191,-1.31928 l 1.28546,-2.16497 q 0.10148,0.10148 0.16913,0.30445 0.0677,0.23679 0.10149,0.30445 0,0 0.13531,0.13531 0.13531,0.16914 0.33828,0.30445 0.23679,0.16914 0.57507,0.30445 0.33827,0.13531 0.74421,0.13531 0.981,0 1.72521,-0.6089 0.77803,-0.6089 1.52224,-2.1988 l 0.47359,-1.15014 -5.81836,-14.30911 z"
         style="font-style:normal;font-variant:normal;font-weight:normal;font-stretch:normal;font-family:inconsolata;-inkscape-font-specification:inconsolata;fill:#ffffff;fill-opacity:1;stroke:none;stroke-opacity:1"
         id="path4160" />
    </g>
    <path
       style="fill:none;fill-opacity:1;stroke:#ffffff;stroke-width:5;stroke-linejoin:miter;stroke-miterlimit:4;stroke-dasharray:none;stroke-opacity:1"
       d="m 42.40057,265.97079 218.056,0 0,269.92566 -218.056,0 z"
       id="rect4255" />
    <g
       style="font-style:normal;font-weight:normal;font-size:135.16345215px;line-height:125%;font-family:sans-serif;letter-spacing:0px;word-spacing:0px;fill:#ffffff;fill-opacity:1;stroke:none;stroke-width:1px;stroke-linecap:butt;stroke-linejoin:miter;stroke-opacity:1"
       id="text4257">
      <path
         d="m 111.57869,389.79035 -5.94719,8.10981 q -0.67582,-0.27033 -0.81098,-1.08131 0,-0.94614 -0.27033,-1.35163 -2.5681,-3.78458 -7.028498,-6.08236 -4.325231,-2.29778 -10.813077,-2.29778 -6.217518,0 -10.407585,3.64942 -4.054904,3.64941 -4.054904,8.65046 0,2.97359 0.946144,5.13621 1.081308,2.16261 3.10876,4.19006 2.162615,2.02746 6.217518,4.19007 4.054904,2.02745 10.54275,4.59556 6.217518,2.5681 10.272422,5.13621 4.0549,2.43294 6.48785,5.27137 2.43294,2.83844 3.37908,6.08236 1.08131,3.10876 1.08131,7.0285 0,4.32523 -1.62196,8.78562 -1.62196,4.32523 -5.13621,7.83948 -3.37909,3.37909 -8.650464,5.54171 -5.271374,2.16261 -12.705364,2.16261 -16.354778,0 -26.356874,-10.81307 l 5.541702,-9.73177 q 0.675817,0.40549 0.675817,1.35163 0,0.94615 0.405491,1.4868 3.108759,3.91974 8.380134,6.62301 5.271374,2.5681 12.705364,2.5681 3.784577,0 6.893336,-1.21647 3.243923,-1.35163 5.541702,-3.37908 2.297776,-2.16262 3.649416,-5.00105 1.35163,-2.9736 1.35163,-6.21752 0,-2.56811 -0.94614,-4.59556 -0.81098,-2.16261 -2.83844,-3.91974 -2.027447,-1.89229 -5.812024,-3.64941 -3.649413,-1.89229 -9.731768,-4.32523 -6.623009,-2.56811 -11.083403,-5.13621 -4.325231,-2.70327 -7.0285,-5.40654 -2.703269,-2.70327 -3.91974,-5.81203 -1.081307,-3.10876 -1.081307,-6.75817 0,-4.59556 1.892288,-8.65046 2.027452,-4.05491 5.406538,-7.0285 3.51425,-3.10876 8.244971,-4.73072 4.73072,-1.75713 10.137258,-1.75713 6.893336,0 12.975687,2.83843 6.08236,2.70327 10.40759,7.70432 z"
         style="font-style:normal;font-variant:normal;font-weight:normal;font-stretch:normal;font-family:inconsolata;-inkscape-font-specification:inconsolata;fill:#ffffff;fill-opacity:1;stroke:none;stroke-opacity:1"
         id="path4164" />
      <path
         d="m 174.15937,398.8463 q 0,-1.62196 -0.40549,-2.43294 -2.70327,-4.46039 -7.0285,-7.0285 -4.32523,-2.70327 -9.19112,-2.70327 -4.59555,0 -8.65046,2.43294 -4.0549,2.29778 -7.16366,6.89334 -3.10876,4.46039 -4.86588,10.94824 -1.75713,6.48785 -1.75713,14.73282 0,7.97464 1.75713,14.59765 1.75712,6.48784 4.86588,11.21857 3.24392,4.59555 7.43399,7.16366 4.32523,2.5681 9.19112,2.5681 5.00104,0 9.5966,-2.70326 4.73072,-2.83844 7.56915,-7.56916 l 7.0285,4.59556 q -2.02745,3.37909 -4.86588,5.94719 -2.83843,2.56811 -6.08236,4.32523 -3.10876,1.75713 -6.35268,2.56811 -3.10876,0.94614 -6.35268,0.94614 -7.29883,0 -12.97569,-2.43294 -5.5417,-2.56811 -10.27242,-7.83948 -4.59556,-5.27138 -7.16367,-13.38118 -2.5681,-8.10981 -2.5681,-19.32838 0,-12.43503 2.97359,-20.68 2.9736,-8.38014 7.83948,-13.38119 4.86589,-5.00104 10.27243,-7.0285 5.5417,-2.16261 10.67791,-2.16261 4.19006,0 8.1098,1.21647 4.05491,1.21647 7.43399,3.37909 3.51425,2.16261 6.21752,5.27137 2.70327,2.9736 4.32523,6.75817 l -9.05595,4.4604 q -0.54065,-0.40549 -0.54065,-1.35164 z"
         style="font-style:normal;font-variant:normal;font-weight:normal;font-stretch:normal;font-family:inconsolata;-inkscape-font-specification:inconsolata;fill:#ffffff;fill-opacity:1;stroke:none;stroke-opacity:1"
         id="path4166" />
      <path
         d="m 199.84042,379.78826 41.76551,0 0,7.97464 -16.6251,0 0,68.52787 17.43608,0 0,7.83948 -43.52263,0 0,-7.97464 16.62511,0 0,-68.39271 -15.67897,0 0,-7.97464 z"
         style="font-style:normal;font-variant:normal;font-weight:normal;font-stretch:normal;font-family:inconsolata;-inkscape-font-specification:inconsolata;fill:#ffffff;fill-opacity:1;stroke:none;stroke-opacity:1"
         id="path4168" />
    </g>
    <g
       style="font-style:normal;font-weight:normal;font-size:96.31026459px;line-height:125%;font-family:sans-serif;letter-spacing:0px;word-spacing:0px;fill:#ffffff;fill-opacity:1;stroke:none;stroke-width:1px;stroke-linecap:butt;stroke-linejoin:miter;stroke-opacity:1"
       id="text4261">
      <path
         d="m 93.918762,321.35976 q 0,-1.15572 -0.288931,-1.73358 -1.926205,-3.17824 -5.008134,-5.00814 -3.081928,-1.9262 -6.549098,-1.9262 -3.274549,0 -6.163857,1.73358 -2.889308,1.63728 -5.104444,4.91183 -2.215136,3.17824 -3.467169,7.80113 -1.252034,4.62289 -1.252034,10.49782 0,5.6823 1.252034,10.40151 1.252033,4.62289 3.467169,7.99375 2.311447,3.27455 5.297065,5.10444 3.081928,1.8299 6.549098,1.8299 3.56348,0 6.838029,-1.92621 3.370859,-2.02251 5.393374,-5.39337 l 5.008134,3.27455 q -1.444654,2.40775 -3.467169,4.23765 -2.022516,1.82989 -4.333962,3.08193 -2.215136,1.25203 -4.526583,1.82989 -2.215136,0.67417 -4.526582,0.67417 -5.200754,0 -9.245786,-1.73358 -3.94872,-1.8299 -7.31958,-5.586 -3.274549,-3.7561 -5.104444,-9.53471 -1.829895,-5.77862 -1.829895,-13.77237 0,-8.86054 2.118826,-14.73547 2.118826,-5.97124 5.585995,-9.53472 3.46717,-3.56348 7.319581,-5.00813 3.94872,-1.54097 7.60851,-1.54097 2.985619,0 5.778616,0.8668 2.889308,0.86679 5.297065,2.40775 2.504067,1.54097 4.430272,3.7561 1.926205,2.11883 3.081928,4.81552 l -6.452787,3.17824 q -0.385241,-0.28893 -0.385241,-0.96311 z"
         style="font-style:normal;font-variant:normal;font-weight:normal;font-stretch:normal;font-family:inconsolata;-inkscape-font-specification:inconsolata;fill:#ffffff;fill-opacity:1;stroke:none;stroke-opacity:1"
         id="path4171" />
      <path
         d="m 105.18706,367.78131 21.18826,-61.06071 0.77048,0 23.11447,61.06071 -6.93434,0 -6.64541,-17.52847 -19.06943,0 -5.77862,17.52847 -6.64541,0 z m 29.9525,-22.72922 -8.47531,-22.92184 -7.70482,22.92184 16.18013,0 z"
         style="font-style:normal;font-variant:normal;font-weight:normal;font-stretch:normal;font-family:inconsolata;-inkscape-font-specification:inconsolata;fill:#ffffff;fill-opacity:1;stroke:none;stroke-opacity:1"
         id="path4173" />
      <path
         d="m 159.40974,307.68371 34.57539,0 0,5.87492 -27.83367,0 0,18.87681 22.44029,0 0,5.87493 -22.44029,0 0,29.47094 -6.74172,0 0,-60.0976 z"
         style="font-style:normal;font-variant:normal;font-weight:normal;font-stretch:normal;font-family:inconsolata;-inkscape-font-specification:inconsolata;fill:#ffffff;fill-opacity:1;stroke:none;stroke-opacity:1"
         id="path4175" />
      <path
         d="m 205.73498,307.68371 36.79052,0 0,5.97123 -30.43405,0 0,19.74361 25.13698,0 0,6.16385 -25.13698,0 0,22.24767 30.14512,0 0,5.97124 -36.50159,0 0,-60.0976 z"
         style="font-style:normal;font-variant:normal;font-weight:normal;font-stretch:normal;font-family:inconsolata;-inkscape-font-specification:inconsolata;fill:#ffffff;fill-opacity:1;stroke:none;stroke-opacity:1"
         id="path4177" />
    </g>
  </g>
</svg>
